<?xml version="1.0" encoding="UTF-8"?>
<svg id="Layer_2" data-name="Layer 2" xmlns="http://www.w3.org/2000/svg" viewBox="0 0 251.71 28.86">
  <defs>
    <style>
      .cls-1 {
        fill: #17a9c9;
        stroke: #0d1233;
        stroke-miterlimit: 10;
        stroke-width: .75px;
      }
    </style>
  </defs>
  <g id="Layer_1-2" data-name="Layer 1">
    <g>
      <path class="cls-1" d="M13.68,4.53v23.44c0,.24-.21.32-.49.32h-6.37c-.35,0-.56-.2-.56-.32V4.53H.94c-.42,0-.56-.16-.56-.28V.89c0-.2.21-.32.56-.32h18.13c.28,0,.56.12.56.32v3.37c0,.2-.28.28-.56.28h-5.39Z"/>
      <path class="cls-1" d="M37.2,28.29c-.42,0-.56-.2-.56-.32v-11.76h-6.44v11.76c0,.24-.21.32-.56.32h-6.3c-.42,0-.56-.2-.56-.32V.89c0-.2.21-.32.56-.32h6.3c.35,0,.56.12.56.32v11.32h6.44V.89c0-.2.21-.32.56-.32h6.3c.35,0,.56.12.56.32v27.08c0,.24-.21.32-.56.32h-6.3Z"/>
      <path class="cls-1" d="M50.92,28.29c-.42,0-.56-.2-.56-.32V.89c0-.2.21-.32.56-.32h13.02c.28,0,.56.12.56.32v3.37c0,.2-.28.28-.56.28h-6.16v7.68h6.16c.28,0,.56.12.56.32v3.37c0,.24-.28.32-.56.32h-6.16v8.08h6.16c.28,0,.56.12.56.28v3.41c0,.24-.28.32-.56.32h-13.02Z"/>
      <path class="cls-1" d="M93.41,4.37h-5.74c-.28,0-.35.04-.35.2v19.72c0,.16.07.2.35.2h5.74c.28,0,.35-.04.35-.2v-3.68c0-.2.28-.28.56-.28h6.3c.35,0,.56.08.56.28v4c0,2.46-1.54,3.88-7,3.88h-7.07c-5.6,0-7.21-1.43-7.21-3.8V4.26c0-2.46,1.89-3.88,7.07-3.88h7.14c5.18,0,7.07,1.43,7.07,3.84v3.68c0,.2-.21.28-.56.28h-6.3c-.28,0-.56-.08-.56-.28v-3.33c0-.16-.07-.2-.35-.2Z"/>
      <path class="cls-1" d="M106.64,28.29c-.42,0-.56-.2-.56-.32V.89c0-.2.21-.32.56-.32h6.3c.35,0,.56.12.56.32v23.4h6.72c.35,0,.56.16.56.32v3.37c0,.24-.21.32-.56.32h-13.58Z"/>
      <path class="cls-1" d="M124.49,28.29c-.42,0-.56-.2-.56-.32V.89c0-.2.21-.32.56-.32h6.3c.35,0,.56.12.56.32v27.08c0,.24-.21.32-.56.32h-6.3Z"/>
      <path class="cls-1" d="M138.21,28.29c-.42,0-.56-.2-.56-.32V.89c0-.2.21-.32.56-.32h12.6c5.18,0,7.07,1.43,7.07,3.84v7.72c0,2.46-1.54,4.08-7,4.08h-5.81v11.76c0,.24-.21.32-.56.32h-6.3ZM145.07,4.57v7.64h5.04c.28,0,.35-.04.35-.2v-7.25c0-.16-.07-.2-.35-.2h-5.04Z"/>
      <path class="cls-1" d="M162.64,28.29c-.42,0-.56-.2-.56-.32V.89c0-.2.21-.32.56-.32h12.6c5.18,0,7.07,1.43,7.07,3.84v7.72c0,2.46-1.54,4.08-7,4.08h-5.81v11.76c0,.24-.21.32-.56.32h-6.3ZM169.5,4.57v7.64h5.04c.28,0,.35-.04.35-.2v-7.25c0-.16-.07-.2-.35-.2h-5.04Z"/>
      <path class="cls-1" d="M187.07,28.29c-.42,0-.56-.2-.56-.32V.89c0-.2.21-.32.56-.32h13.02c.28,0,.56.12.56.32v3.37c0,.2-.28.28-.56.28h-6.16v7.68h6.16c.28,0,.56.12.56.32v3.37c0,.24-.28.32-.56.32h-6.16v8.08h6.16c.28,0,.56.12.56.28v3.41c0,.24-.28.32-.56.32h-13.02Z"/>
      <path class="cls-1" d="M218.93,28.29c-.42,0-.56-.2-.56-.32l-5.39-10.93v10.93c0,.24-.21.32-.56.32h-6.3c-.42,0-.56-.2-.56-.32V.89c0-.2.21-.32.56-.32h12.6c5.18,0,7.07,1.43,7.07,3.84v8.12c0,2.22-1.26,3.6-5.46,3.84l6.16,11.6c.07.24-.21.32-.56.32h-7ZM212.97,4.57v7.84h5.04c.28,0,.35-.04.35-.2v-7.44c0-.16-.07-.2-.35-.2h-5.04Z"/>
      <path class="cls-1" d="M230.06,4.26c0-2.46,1.89-3.88,7.07-3.88h7.14c5.18,0,7.07,1.43,7.07,3.84v3.68c0,.2-.21.28-.56.28h-6.3c-.28,0-.56-.08-.56-.28v-3.33c0-.16-.07-.2-.35-.2h-5.74c-.28,0-.35.04-.35.2v7.64c0,.16.07.2.35.2h6.44c5.53,0,7.07,1.43,7.07,3.8v8.39c0,2.46-1.54,3.88-7,3.88h-7.07c-5.6,0-7.21-1.43-7.21-3.8v-4.08c0-.2.21-.28.56-.28h6.3c.28,0,.56.08.56.28v3.68c0,.16.07.2.35.2h5.74c.28,0,.35-.04.35-.2v-7.68c0-.16-.07-.2-.35-.2h-6.44c-5.04,0-7.07-.55-7.07-3.8V4.26Z"/>
    </g>
  </g>
</svg>